<?xml version="1.0" standalone="no"?>
<!DOCTYPE svg PUBLIC "-//W3C//DTD SVG 20010904//EN"
 "http://www.w3.org/TR/2001/REC-SVG-20010904/DTD/svg10.dtd">
<svg version="1.0" xmlns="http://www.w3.org/2000/svg"
 width="243.000000pt" height="48.000000pt" viewBox="0 0 243.000000 48.000000"
 preserveAspectRatio="xMidYMid meet">

<g transform="translate(0.000000,48.000000) scale(0.100000,-0.100000)"
fill="#0d6efd" stroke="none">
<path d="M860 401 c0 -22 5 -43 10 -46 6 -4 10 8 10 29 0 34 2 36 35 36 19 0
35 5 35 10 0 6 -20 10 -45 10 l-45 0 0 -39z"/>
<path d="M1155 430 c3 -5 19 -10 36 -10 27 0 29 -3 29 -35 0 -19 5 -35 10 -35
6 0 10 20 10 45 l0 45 -46 0 c-27 0 -43 -4 -39 -10z"/>
<path d="M264 385 c-9 -23 3 -45 25 -45 23 0 35 28 20 46 -15 18 -38 18 -45
-1z"/>
<path d="M910 335 l0 -55 55 0 55 0 0 55 0 55 -55 0 -55 0 0 -55z m98 3 l3
-38 -40 0 c-40 0 -41 1 -41 33 0 42 7 49 45 45 27 -3 30 -7 33 -40z"/>
<path d="M1080 335 l0 -55 55 0 55 0 0 55 0 55 -55 0 -55 0 0 -55z m98 3 l3
-38 -40 0 -41 0 0 41 0 40 38 -3 c35 -3 37 -5 40 -40z"/>
<path d="M50 235 l0 -135 85 0 c84 0 85 0 85 25 0 24 -3 25 -60 25 l-60 0 0
110 0 110 -25 0 -25 0 0 -135z"/>
<path d="M2162 259 c3 -107 4 -112 31 -135 40 -34 124 -34 164 0 27 23 28 28
31 135 l4 111 -31 0 -31 0 0 -99 c0 -107 -7 -123 -55 -124 -48 0 -55 17 -55
124 l0 99 -31 0 -31 0 4 -111z"/>
<path d="M260 205 l0 -105 25 0 25 0 0 105 0 105 -25 0 -25 0 0 -105z"/>
<path d="M343 298 c3 -7 20 -55 37 -105 31 -91 32 -93 64 -93 31 0 32 1 64 98
18 54 32 101 32 106 0 4 -12 6 -27 4 -24 -3 -29 -10 -47 -77 -22 -81 -23 -81
-51 22 -15 53 -18 57 -47 57 -20 0 -28 -4 -25 -12z"/>
<path d="M583 286 c-25 -21 -28 -31 -28 -81 0 -50 3 -60 28 -81 49 -42 156
-22 157 29 0 11 -48 9 -55 -3 -9 -14 -48 -13 -63 2 -28 28 -13 38 59 38 l71 0
-6 38 c-14 77 -103 109 -163 58z m95 -28 c21 -21 13 -28 -28 -28 -22 0 -40 4
-40 8 0 14 23 32 40 32 9 0 21 -5 28 -12z"/>
<path d="M1370 205 l0 -105 25 0 c24 0 25 2 25 69 0 50 4 74 16 85 36 36 54 8
54 -82 l0 -73 28 3 c26 3 27 5 30 75 2 57 7 75 20 82 34 18 46 -3 50 -83 4
-72 5 -76 28 -76 23 0 24 2 24 83 0 98 -14 127 -62 127 -17 0 -39 -7 -49 -16
-17 -15 -19 -15 -34 0 -21 21 -63 21 -87 -1 -17 -15 -18 -15 -18 0 0 11 -8 17
-25 17 l-25 0 0 -105z"/>
<path d="M1733 286 c-25 -21 -28 -31 -28 -81 0 -50 3 -60 28 -81 49 -42 156
-22 157 29 0 11 -48 9 -55 -3 -9 -14 -48 -13 -63 2 -28 28 -13 38 58 38 56 0
70 3 70 15 0 29 -28 83 -48 94 -36 19 -89 13 -119 -13z m95 -28 c21 -21 13
-28 -28 -28 -22 0 -40 4 -40 8 0 14 23 32 40 32 9 0 21 -5 28 -12z"/>
<path d="M1930 205 l0 -105 30 0 30 0 0 75 c0 65 3 76 21 85 36 20 49 -3 49
-86 l0 -74 30 0 30 0 0 85 c0 72 -3 88 -20 105 -24 24 -72 26 -94 4 -15 -14
-16 -14 -16 0 0 11 -9 16 -30 16 l-30 0 0 -105z"/>
<path d="M1059 248 c-6 -21 -5 -38 2 -38 5 0 9 5 9 10 0 6 7 10 15 10 8 0 15
-4 15 -10 0 -5 5 -10 10 -10 6 0 10 9 10 20 0 16 -7 20 -30 20 -16 0 -30 -1
-31 -2z"/>
<path d="M1150 240 c0 -5 9 -10 20 -10 11 0 20 5 20 10 0 6 -9 10 -20 10 -11
0 -20 -4 -20 -10z"/>
<path d="M910 165 l0 -55 55 0 55 0 0 55 0 55 -55 0 -55 0 0 -55z m100 5 l0
-40 -40 0 -40 0 0 40 0 40 40 0 40 0 0 -40z"/>
<path d="M960 170 c0 -5 5 -10 10 -10 6 0 10 5 10 10 0 6 -4 10 -10 10 -5 0
-10 -4 -10 -10z"/>
<path d="M1073 185 c-18 -20 -16 -25 7 -25 13 0 20 7 20 20 0 23 -10 25 -27 5z"/>
<path d="M1130 180 c0 -11 5 -20 11 -20 5 0 7 5 4 10 -4 6 5 10 19 10 14 0 26
5 26 10 0 6 -13 10 -30 10 -23 0 -30 -4 -30 -20z"/>
<path d="M862 108 c3 -43 3 -43 46 -46 25 -2 42 1 42 7 0 6 -16 11 -35 11 -33
0 -35 2 -35 35 0 19 -5 35 -11 35 -6 0 -9 -17 -7 -42z"/>
<path d="M1180 140 c0 -5 -11 -10 -25 -10 -14 0 -25 -4 -25 -10 0 -5 14 -10
30 -10 23 0 30 4 30 20 0 11 -2 20 -5 20 -3 0 -5 -4 -5 -10z"/>
<path d="M1220 115 c0 -33 -2 -35 -36 -35 -21 0 -33 -4 -29 -10 3 -5 24 -10
46 -10 l39 0 0 45 c0 25 -4 45 -10 45 -5 0 -10 -16 -10 -35z"/>
<path d="M1060 120 c0 -5 9 -10 20 -10 11 0 20 5 20 10 0 6 -9 10 -20 10 -11
0 -20 -4 -20 -10z"/>
</g>
</svg>
